PathFileType	4	(X/Y/Z)	C:\Users\dbl\Desktop\20210112(1)\20210112\bx_y_5_501.trc
DataRate	CameraRate	NumFrames	NumMarkers	Units	OrigDataRate	OrigDataStartFrame	OrigNumFrames
50.00	50.00	       5	43	mm	50.00	1	       519
Frame#	Time	Top.Head			R.Acromium			L.Acromium			Sternum			R.ASIS			L.ASIS			V.Sacral			R.Thigh.Upper			R.Thigh.Front			R.Thigh.Rear			R.Knee.Lat			R.Knee.Med			R.Shank.Upper			R.Shank.Front			R.Shank.Rear			R.Ankle.Lat			R.Midfoot.Lat			R.Toe.Lat			R.Toe.Tip			R.Toe.Med			R.Ankle.Med			R.Midfoot.Sup			R.Heel			L.Thigh.Upper			L.Thigh.Front			L.Thigh.Rear			L.Knee.Lat			L.Knee.Med			L.Shank.Upper			L.Shank.Front			L.Shank.Rear			L.Ankle.Lat			L.Midfoot.Lat			L.Toe.Lat			L.Toe.Tip			L.Toe.Med			L.Ankle.Med			L.Midfoot.Sup			L.Heel			origin1 front left			origin2 front right			origin 3 back right			origin 4 back leftt			
		X1	Y1	Z1	X2	Y2	Z2	X3	Y3	Z3	X4	Y4	Z4	X5	Y5	Z5	X6	Y6	Z6	X7	Y7	Z7	X8	Y8	Z8	X9	Y9	Z9	X10	Y10	Z10	X11	Y11	Z11	X12	Y12	Z12	X13	Y13	Z13	X14	Y14	Z14	X15	Y15	Z15	X16	Y16	Z16	X17	Y17	Z17	X18	Y18	Z18	X19	Y19	Z19	X20	Y20	Z20	X21	Y21	Z21	X22	Y22	Z22	X23	Y23	Z23	X24	Y24	Z24	X25	Y25	Z25	X26	Y26	Z26	X27	Y27	Z27	X28	Y28	Z28	X29	Y29	Z29	X30	Y30	Z30	X31	Y31	Z31	X32	Y32	Z32	X33	Y33	Z33	X34	Y34	Z34	X35	Y35	Z35	X36	Y36	Z36	X37	Y37	Z37	X38	Y38	Z38	X39	Y39	Z39	X40	Y40	Z40	X41	Y41	Z41	X42	Y42	Z42	X43	Y43	Z43	

1	0.000	-654.83667	120.94523	1852.75305	-680.39203	-63.44957	1566.22815	-727.08246	284.50821	1542.37585	-605.21564	107.38354	1435.44653	-600.07568	-2.89869	1048.11816	-594.81445	221.78395	1068.32776	-799.23315	95.91763	1043.14111	-650.53674	-64.26797	853.64697	-596.43506	0.45799	800.52332	-692.55499	-50.14299	704.93085	-713.16748	-26.47412	613.26123	-703.43469	81.41792	572.84845	-726.44397	-23.85576	566.20630	-677.11176	20.30410	519.85339	-772.16711	-33.99529	486.69397	-766.97144	-3.51529	205.63817	-664.94446	-66.34532	163.57014	-624.50458	-77.21408	160.03059	-561.04413	-44.55342	162.65227	-602.10840	19.26229	165.25682	-716.77606	79.77840	215.98416	-674.08112	56.98895	155.98476	-794.16766	57.78584	175.56520	-649.46252	281.68805	874.66425	-594.36768	215.59735	821.46997	-700.48785	274.80432	746.05786	-732.98901	251.58902	637.88165	-699.01971	143.79832	572.85004	-736.81097	246.40858	575.03131	-683.32910	205.02765	532.50562	-778.69452	255.39676	502.12817	-771.92633	222.68993	204.55374	-667.01947	299.49307	159.08989	-629.63171	307.63327	161.31912	-561.84235	263.46475	165.06602	-595.01587	224.31303	174.17024	-711.97217	152.78329	216.27812	-674.82416	172.25571	157.48148	-796.73260	172.29277	184.01111	-528.08600	304.15735	146.47820	-517.48334	-72.70523	143.00581	-875.64880	-79.04969	141.18465	-882.71808	296.22659	144.56442	
2	0.020	-654.68689	120.94479	1852.73889	-680.28369	-63.47924	1566.23877	-726.86841	284.58737	1542.37354	-605.15424	107.45900	1435.29956	-600.02350	-2.90676	1048.08582	-594.71753	221.71437	1068.39294	-799.18805	95.88435	1043.19006	-650.49738	-64.23435	853.70349	-596.34430	0.57601	800.63605	-692.56085	-50.13286	704.88416	-713.17206	-26.47085	613.25983	-703.50293	81.52801	572.84302	-726.49854	-23.79851	566.01276	-677.13251	20.24005	519.76563	-772.17255	-33.93618	486.63824	-766.99481	-3.49238	205.55400	-664.97339	-66.32432	163.54434	-624.54175	-77.23006	159.99844	-561.15143	-44.48211	162.64554	-602.10559	19.29979	165.25113	-716.76282	79.55177	215.79002	-674.08112	56.98901	155.98471	-794.16901	57.84575	175.50397	-649.48065	281.75931	874.71106	-594.34393	215.67078	821.43024	-700.20520	274.36880	746.00378	-733.09344	251.59509	637.80328	-699.04132	143.78995	573.01251	-736.75775	246.42644	575.07678	-683.34900	205.01620	532.49536	-778.73785	255.32516	502.15329	-771.92395	222.71729	204.51495	-667.01593	299.58170	159.18059	-629.62158	307.61621	161.32005	-561.84882	263.54739	165.06291	-595.00293	224.33397	174.10413	-711.96613	152.77841	216.31044	-674.85413	172.31654	157.47595	-796.58612	172.31332	183.91313	-528.08759	304.06680	146.43617	-517.46631	-72.77171	142.97404	-875.76727	-79.03443	141.13950	-882.65466	296.17474	144.57047	
3	0.040	-654.52936	120.94636	1852.72522	-680.16150	-63.47342	1566.24060	-726.68274	284.62955	1542.36255	-605.02002	107.51476	1435.19946	-599.98761	-2.91445	1048.06348	-594.63574	221.66174	1068.44568	-799.16333	95.87196	1043.20801	-650.47614	-64.21564	853.73492	-596.30396	0.64773	800.65662	-692.54816	-50.11347	704.83844	-713.18756	-26.45975	613.23822	-703.48578	81.59563	572.88434	-726.54663	-23.75024	565.90118	-677.14502	20.19736	519.70288	-772.17609	-33.88889	486.60883	-767.02441	-3.47610	205.48640	-664.98334	-66.30708	163.53604	-624.56445	-77.25603	159.98622	-561.18939	-44.44433	162.62993	-602.09784	19.33265	165.26120	-716.76575	79.41578	215.64673	-674.08105	56.98874	155.98495	-794.17493	57.86769	175.45746	-649.48102	281.80386	874.74384	-594.33990	215.71378	821.39764	-700.07837	274.18484	745.94421	-733.15363	251.60612	637.75781	-699.05182	143.78595	573.11243	-736.70667	246.42905	575.07483	-683.36908	205.02600	532.47717	-778.74976	255.28200	502.14343	-771.92474	222.75337	204.49583	-667.00873	299.62421	159.22437	-629.60437	307.58786	161.32198	-561.85620	263.58633	165.06520	-595.00122	224.35033	174.05666	-711.96350	152.76311	216.34259	-674.86316	172.38351	157.46727	-796.49365	172.32088	183.86916	-528.08929	304.05130	146.40460	-517.48785	-72.81070	142.89148	-875.87695	-79.01057	141.10957	-882.61102	296.12238	144.56259	
4	0.060	-654.37195	120.95561	1852.71179	-680.02820	-63.44101	1566.23022	-726.53052	284.63287	1542.35925	-604.79901	107.54778	1435.14978	-599.97089	-2.92030	1048.04871	-594.57172	221.63055	1068.47961	-799.15704	95.88282	1043.20032	-650.46893	-64.20916	853.74579	-596.30865	0.66007	800.58392	-692.52557	-50.08345	704.80255	-713.19727	-26.44865	613.20538	-703.38318	81.63515	572.95099	-726.58124	-23.71962	565.88666	-677.14960	20.18050	519.67731	-772.17725	-33.85536	486.60864	-767.05713	-3.46937	205.45731	-664.98022	-66.29501	163.54193	-624.56427	-77.28436	159.99409	-561.16479	-44.44698	162.60719	-602.08722	19.35162	165.28064	-716.77893	79.38183	215.57230	-674.08075	56.98793	155.98570	-794.18463	57.85831	175.43130	-649.43909	281.82547	874.75488	-594.33618	215.73734	821.38879	-700.08972	274.22772	745.88110	-733.16205	251.61060	637.73138	-699.06409	143.79204	573.13599	-736.64630	246.42191	575.02368	-683.37433	205.05246	532.46381	-778.74017	255.27112	502.12222	-771.92944	222.78035	204.49899	-666.98804	299.63223	159.23090	-629.58258	307.55402	161.32774	-561.86981	263.57425	165.09198	-595.00873	224.36356	174.02820	-711.94952	152.74753	216.38510	-674.84357	172.44394	157.46767	-796.45654	172.31180	183.86713	-528.09009	304.11292	146.38725	-517.54980	-72.81038	142.76868	-875.95148	-78.98093	141.10555	-882.59448	296.08026	144.54144	
5	0.080	-654.22723	120.97071	1852.69946	-679.90088	-63.42436	1566.21155	-726.39551	284.63086	1542.38892	-604.54596	107.57150	1435.13391	-599.96454	-2.92092	1048.03394	-594.52008	221.61009	1068.49036	-799.14563	95.90238	1043.19141	-650.46112	-64.20496	853.75305	-596.32111	0.63210	800.49579	-692.51886	-50.06125	704.79553	-713.18561	-26.44777	613.18433	-703.28168	81.68636	572.96234	-726.59778	-23.70695	565.92621	-677.14984	20.18319	519.68542	-772.17468	-33.83408	486.62418	-767.06982	-3.46812	205.47801	-664.98340	-66.29320	163.54543	-624.54565	-77.29512	160.00996	-561.12823	-44.47068	162.58495	-602.07489	19.35846	165.29839	-716.78870	79.40157	215.54842	-674.08032	56.98685	155.98668	-794.19287	57.84588	175.43092	-649.35333	281.84061	874.74170	-594.30737	215.76747	821.41266	-700.11346	274.29800	745.81702	-733.14496	251.59053	637.68066	-699.07135	143.80449	573.10400	-736.57977	246.42854	574.96814	-683.33539	205.06488	532.47540	-778.73816	255.28000	502.13287	-771.93683	222.78258	204.51489	-666.95520	299.64111	159.23575	-629.56665	307.53662	161.34648	-561.89105	263.54416	165.15564	-595.01379	224.37016	174.01959	-711.91669	152.75417	216.43735	-674.80542	172.48256	157.49406	-796.44922	172.29192	183.86192	-528.09320	304.19174	146.37914	-517.62036	-72.79127	142.67270	-875.97095	-78.95706	141.12411	-882.59790	296.06033	144.51917	
